<svg viewBox="0 0 9443 7142" xmlns="http://www.w3.org/2000/svg" xmlns:serif="http://www.serif.com/" fill-rule="evenodd" clip-rule="evenodd" stroke-linejoin="round" stroke-miterlimit="1.414"><g serif:id="Layer 1" fill-rule="nonzero"><path d="M6974.63 485.101l-606.253 1117.22 914.117-413.885-307.864-703.338zM991.743 1811.96l-353.776 716.68 1087.13-86.209-733.356-630.471zM4309.95 6401.99l657.181 396.962-149.195-1262.33-507.986 865.367z" fill="#fd681c"/><path d="M6885.39 3628.34l-286.403-471.146 79.58-161.865 206.823 633.011zm375.796 618.204l1656.09-1612.33-2599.22-742.282 203.27 622.136-940.398-2001.82-1266.51 1187.19-2811.82-1187.19 994.343 2890.85-2063.06 1933.85 2245.08-93.441-27.713 1585.61 2222.46-1665.85 1710.38 1499.73-228.834-1578.89 1562.09 241.832-656.153-1079.4z" fill="#fd681c"/><path d="M5395.43 3679.53L1269.9 4653.873l-74.094-1830.38 4125.6-957.445 74.017 1813.48z" fill="#221c35"/><path d="M8120.01 4461.56L3540.84 5568.21l-38.389-1818.13 4497.86-1100.52 119.695 1811.99z" fill="#221c35"/><path d="M1985.42 3758.42l5.269 163.699c-1.144 49.275-9.59 95.434-24.143 136.532-15.695 36.465-34.847 72.122-64.732 103.861-30.694 35.188-72.456 58.362-126.483 71.423-54 13.061-97.127 10.413-131.25-9.102-31.823-16.804-52.801-42.758-66.433-72.128-19.403-32.889-29.104-73.019-31.418-123.102l-19.599-702.554c-.027-47.386 7.248-91.607 22.972-134.615 15.681-36.458 32.91-73.292 62.809-105.024 29.885-31.739 72.455-58.363 128.016-71.801 55.561-13.436 97.88-7.338 129.716 9.472 31.837 16.804 54.725 43.937 68.357 73.306 19.013 31.342 28.714 71.472 32.589 121.179l3.736 164.076-155.866 37.691-3.763-164.076c-.893-30.806-9.981-54.76-27.962-68.378-8.029-6.217-21.508-7.869-38.472-3.771-29.327 7.095-42.625 33.175-50.124 56.223-2.008 11.939-4.823 27.314-5.353 45.406l19.626 702.561c2.453 30.436 11.514 54.384 27.962 68.378 8.057 6.217 18.427 8.621 32.311 5.263 35.488-8.587 49.539-31.593 56.285-57.715 2.398-10.385 5.213-25.767 5.353-45.413l-5.283-163.701 155.88-37.69zM2338.33 3130.75c-1.283-32.353-9.98-54.76-24.895-69.124-8.029-6.217-19.947-8.244-33.844-4.885-29.328 7.088-42.626 33.175-48.564 55.847-3.178 13.854-4.46 28.86-3.819 45.036l19.626 702.554c-.641 31.181 8.433 55.135 24.895 69.124 8.029 6.217 18.413 8.621 32.297 5.261 29.327-7.087 43.364-30.093 48.577-55.846 2.37-10.385 5.2-25.766 5.353-45.406l-19.626-702.561zm186.281 662.249c-1.143 49.281-9.576 95.434-24.143 136.54-15.695 36.457-34.833 72.113-64.732 103.853-30.694 35.188-72.455 58.362-126.469 71.422-54.014 13.069-97.113 10.42-131.236-9.094-31.85-16.811-52.828-42.765-66.461-72.135-19.389-32.889-29.105-73.02-31.39-123.095l-19.627-702.561c-.028-47.386 7.249-91.607 22.972-134.616 15.695-36.458 32.924-73.292 62.809-105.023 29.913-31.739 72.455-58.363 128.016-71.8 55.561-13.437 97.879-7.339 129.716 9.471 31.837 16.81 54.725 43.936 68.357 73.306 19.013 31.341 28.715 71.472 32.59 121.178l19.598 702.554zM2884.6 2998.64c-1.31-32.352-9.994-54.759-24.895-69.123-8.029-6.21-19.961-8.245-33.844-4.886-29.328 7.095-42.625 33.175-48.564 55.847-3.205 13.855-4.46 28.86-3.819 45.037l19.626 702.561c-.641 31.181 8.419 55.128 24.881 69.124 8.043 6.216 18.414 8.614 32.297 5.254 29.328-7.087 43.379-30.094 48.564-55.839 2.397-10.392 5.213-25.774 5.352-45.413L2884.6 2998.64zm186.281 662.25c-1.143 49.281-9.59 95.44-24.17 136.539-15.668 36.458-34.82 72.113-64.705 103.853-30.694 35.189-72.455 58.362-126.483 71.423-54 13.061-97.127 10.419-131.25-9.095-31.836-16.811-52.8-42.765-66.433-72.134-19.403-32.89-29.104-73.02-31.418-123.096l-19.626-702.56c-.029-47.379 7.248-91.608 22.999-134.61 15.667-36.464 32.896-73.291 62.809-105.03 29.885-31.739 72.455-58.363 128.016-71.8 55.561-13.437 97.879-7.332 129.688 9.472 31.851 16.81 54.753 43.935 68.385 73.305 19.013 31.342 28.715 71.472 32.562 121.178l19.626 702.555zM3156.88 2686.14l166.683-40.312 28.63 1030.34 220.683-53.365 4.934 162.166-387.365 93.678-33.565-1192.5zM3612.1 2576.04l381.204-92.186 4.377 180.26-214.521 51.874 8.753 313.154 154.333-37.322 5.464 191.424-154.333 37.322 9.033 327.783 214.521-51.881 5.939 179.896-381.177 92.186-33.593-1192.51zM4370.8 2714.35c-1.227-38.883-3.596-82.428-16.071-113.714-12.085-29.746-29.677-48.376-55.882-42.034-42.849 11.995-55.171 62.371-53.024 132.08 1.617 40.45 17.494 79.083 44.912 118.174 27.431 39.12 58.32 79.014 93.029 121.256 43.127 49.999 80.483 103.058 112.794 155.671 30.777 53.01 52.689 109.783 53.721 174.878 1.31 79.725-6.58 155.142-41.357 220.711-34.778 65.597-88.666 112.934-181.263 135.319-106.48 25.76-168.648-1.686-203.663-58.571-38.081-56.119-45.134-139.355-49.051-229.882l162.933-55.75c.78 50.453 4.627 100.166 17.842 134.533 13.576 35.935 31.892 57.638 67.409 49.051 49.372-11.945 64.454-71.131 63.897-147.767-1.255-38.904-19.404-80.247-47.199-120.907-7.248-9.68-14.873-20.909-22.106-30.583-7.249-9.694-14.859-20.908-22.108-30.595-16.392-20.539-34.708-42.236-53.415-65.499-18.677-23.251-37.356-46.48-56.814-72.839-40.409-52.279-68.497-107.574-87.286-165.1-11.737-28.192-14.553-60.175-15.863-92.542-2.565-64.719 9.158-137.801 44.688-200.289 32.813-60.21 85.948-110.634 164.285-131.208 103.01-26.54 160.941 3.541 195.565 58.892 33.454 57.241 45.552 134.351 46.974 200.98L4370.8 2714.35zM4560.87 2527.92l-4.377-180.259 481.481-116.44 4.377 180.252-157.399 38.068 29.189 1012.25-166.683 40.312-29.16-1012.26-157.428 38.075zM3988.15 4454.01c50.918-12.309 84.19-30.164 100.974-62.001 18.733-30.651 20.992-75.298 19.597-141.947-1.422-66.622-7.248-110.955-26.678-137.3-18.678-23.23-52.914-29.669-103.847-17.347l9.954 358.595zM3807.501 3957l166.681-40.311c72.538-17.535 144.547-16.978 202.367 26.226 57.819 43.176 98.409 123.194 100.416 259.921 2.036 136.721-31.823 233.123-85.126 303.188-53.289 70.064-125.604 108.794-198.128 126.336l14.036 476.86-166.682 40.311-33.564-1192.53zM4532.16 4312.64c23.166-5.604 53.637-14.595 77.375-44.842 23.71-30.248 43.337-77.452 40.911-161.804-2.426-84.352-23.306-123.416-48.981-141.718-25.649-18.288-56.509-10.823-79.676-5.227l10.371 353.591zm149.928 633.493l-101.782-481.781-44.773 10.83 15.389 502.669-166.669 40.318-33.551-1192.53 166.654-40.305c199.077-48.145 286.14 48.417 293.64 275.295 2.551 118.628-23.752 232.796-85.837 293.549l123.611 551.643-166.682 40.312zM5181.72 3871.33c-1.311-32.353-9.98-54.759-24.896-69.123-8.028-6.217-19.959-8.238-33.843-4.879-29.327 7.095-42.625 33.182-48.564 55.847-3.206 13.848-4.46 28.846-3.819 45.03l19.626 702.567c-.641 31.182 8.419 55.129 24.867 69.124 8.057 6.217 18.428 8.607 32.311 5.248 29.328-7.095 43.364-30.094 48.591-55.846 2.37-10.392 5.186-25.767 5.339-45.4l-19.612-702.568zM5368 4533.594c-1.142 49.281-9.59 95.433-24.141 136.518-15.696 36.457-34.848 72.134-64.734 103.866-30.693 35.197-72.455 58.349-126.482 71.417-54 13.061-97.127 10.426-131.249-9.088-31.837-16.803-52.802-42.772-66.434-72.141-19.403-32.883-29.104-73.013-31.419-123.089l-19.626-702.575c-.013-47.364 7.263-91.586 22.999-134.595 15.682-36.472 32.91-73.305 62.81-105.044 29.886-31.719 72.455-58.348 128.016-71.786 55.561-13.437 97.879-7.332 129.716 9.465 31.823 16.803 54.725 43.935 68.357 73.319 19.012 31.321 28.715 71.451 32.561 121.157L5368 4533.594zM5430.56 4603.41c33.537-3.213 57.54-18.818 73.542-47.19 8.559-11.87 13.354-32.639 12.796-61.911l-25.843-944.451 166.683-40.304 26.01 972.196c2.593 64.705-11.388 128.532-49.149 181.764-37.774 53.234-99.691 94.34-199.969 112.049l-4.07-172.153zM5773.43 3481.57l381.176-92.178 4.404 180.266-214.52 51.874 8.752 313.14 154.32-37.322 5.464 191.439-154.319 37.321 9.033 327.783 214.493-51.874 5.938 179.89-381.177 92.185-33.564-1192.52zM6702.13 4045.97l5.269 163.699c-1.143 49.281-9.59 95.441-24.143 136.526-15.695 36.458-34.847 72.128-64.732 103.867-30.694 35.188-72.456 58.348-126.483 71.409-54 13.067-97.113 10.434-131.235-9.081-31.852-16.811-52.816-42.779-66.447-72.149-19.404-32.875-29.106-73.005-31.406-123.082l-19.612-702.574c-.027-47.365 7.249-91.594 22.972-134.594 15.695-36.479 32.923-73.306 62.809-105.045 29.913-31.725 72.455-58.349 128.016-71.787 55.56-13.436 97.88-7.331 129.717 9.458 31.836 16.811 54.724 43.936 68.356 73.32 19.013 31.328 28.715 71.458 32.59 121.165l3.735 164.075-155.866 37.691-3.764-164.069c-.905-30.811-9.965-54.759-27.961-68.377-8.029-6.217-21.494-7.862-38.471-3.757-29.328 7.088-42.626 33.175-50.125 56.223-2.007 11.918-4.823 27.307-5.353 45.393l19.626 702.574c2.453 30.429 11.514 54.384 27.962 68.378 8.043 6.216 18.427 8.6 32.311 5.241 35.503-8.579 49.539-31.586 56.285-57.714 2.397-10.385 5.214-25.76 5.352-45.393l-5.268-163.707 155.866-37.69zM6726.83 3432.33l-4.377-180.266 481.481-116.447 4.376 180.274-157.399 38.067 29.175 1012.25-166.669 40.311-29.16-1012.26-157.427 38.067zM7553.66 3372.85c-1.255-38.903-3.597-82.449-16.086-113.735-12.085-29.746-29.662-48.362-55.895-42.02-42.821 12.002-55.157 62.357-52.997 132.079 1.618 40.438 17.48 79.076 44.912 118.175 27.432 39.1 58.321 79.014 93.029 121.256 43.127 50.006 80.456 103.057 112.794 155.678 30.777 52.989 52.676 109.762 53.722 174.858 1.309 79.724-6.58 155.141-41.372 220.737-34.763 65.57-88.679 112.907-181.262 135.3-106.494 25.752-168.662-1.68-203.65-58.565-38.081-56.132-45.134-139.369-49.065-229.896l162.947-55.735c.753 50.452 4.628 100.158 17.828 134.539 13.591 35.914 31.907 57.631 67.395 49.045 49.4-11.946 64.482-71.124 63.925-147.768-1.255-38.918-19.417-80.261-47.226-120.9-7.234-9.701-14.858-20.915-22.093-30.596-7.234-9.681-14.845-20.916-22.094-30.603-16.419-20.533-34.721-42.236-53.414-65.486-18.678-23.243-37.384-46.493-56.815-72.831-40.423-52.299-68.496-107.595-87.3-165.107-11.722-28.206-14.566-60.189-15.848-92.541-2.593-64.719 9.143-137.802 44.66-200.304 32.812-60.21 85.975-110.613 164.313-131.194 103.009-26.554 160.94 3.541 195.55 58.879 33.439 57.254 45.566 134.357 46.961 201l-162.919 55.735z" fill="#fff"/><path d="M7221.53 2615.17l-1628.4 399.012-53.273-1014.24 1615.75-388.47 65.922 1003.7z" fill="#221c35"/><path d="M5823.97 2329.01l-1.17-47.601c-.753-45.828 4.02-92.056 21.351-129.109 18.222-37.256 47.879-66.032 101.109-78.909 49.675-12.013 82.575-.249 102.732 24.913 9.859 13.583 17.481 29.581 22.196 49.089 4.935 20.412 7.437 42.348 8.364 65.58 2.108 70.869-20.922 158.13-49.918 244-30.768 86.316-64.352 164.866-88.865 214.911l151.688-36.683 3.429 99.644-259.91 62.852-3.43-99.638c28.081-54.668 52.42-109.382 75.856-163.875 19.625-46.999 36.828-96.221 51.389-148.572 13.902-51.256 23.575-100.536 23.679-142.814-.741-18.611-2.132-39.868-6.661-54.737-6.314-14.428-13.531-24.884-27.722-21.449-13.31 3.215-20.714 15.321-25.255 31.452-3.452 16.792-5.166 36.92-4.239 60.176l1.192 47.601-95.815 23.169zM6301.36 2136.57c-.753-18.604-5.734-31.475-14.307-39.729-4.623-3.58-11.468-4.744-19.463-2.81-16.843 4.079-24.489 19.069-27.918 32.107-1.831 7.947-2.56 16.572-2.177 25.874l11.271 403.849c-.359 17.927 4.854 31.678 14.307 39.729 4.61 3.58 10.588 4.941 18.57 3.012 16.856-4.077 24.918-17.284 27.907-32.095a119 119 0 0 0 3.081-26.094l-11.271-403.843zm107.076 380.674c-.661 28.318-5.514 54.859-13.879 78.479-9.024 20.951-20.017 41.456-37.209 59.696-17.643 20.226-41.646 33.548-72.705 41.055-31.035 7.507-55.814 5.984-75.438-5.224-18.304-9.662-30.352-24.589-38.195-41.467-11.144-18.901-16.727-41.977-18.048-70.753l-11.272-403.849c-.023-27.229 4.159-52.64 13.206-77.367 9.013-20.962 18.918-42.133 36.098-60.379 17.191-18.245 41.658-33.543 73.585-41.264 31.938-7.721 56.255-4.222 74.558 5.439 18.304 9.662 31.463 25.254 39.295 42.145 10.936 18.008 16.52 41.085 18.72 69.646l11.284 403.843zM6436.99 2111.28l-1.494-64.433c39.758-18.067 62.324-45.116 79.319-68.013 8.074-13.218 15.048-27.102 20.238-40.563l57.667-13.942 19.29 685.451-95.817 23.169-15.338-537.117-63.865 15.448zM6809.84 1983.56c-1.055-8.196-7.971-29.06-30.155-23.702-20.401 4.935-27.675 29.233-28.394 37.858l5.77 198.6c-.731 8.624 9.742 28.631 30.142 23.696 20.401-4.935 27.862-24.582 29.055-35.194l-6.418-201.258zm-152.823 66.993c-.974-15.726-.684-53.352 15.534-91.072 16.438-36.838 44.393-72.71 104.713-87.295 57.668-13.948 90.916 7.119 108.188 35.808 18.373 29.355 20.748 66.338 21.721 82.065l10.728 389.889c-.417 25.451.822 65.528-15.408 103.259-16.01 38.605-44.843 74.691-105.165 89.282-60.32 14.585-91.807-6.91-109.497-37.366-17.481-29.581-20.505-69.229-20.088-94.681l-.996-42.955 95.805-23.169c.765 45.84 2.293 75.508 6.371 92.352 3.649 15.095 12.674 21.362 25.973 18.141 11.538-2.792 19.126-10.264 23.435-23.505 3.638-12.152 4.669-31.174 3.765-58.189l-3.869-128.646c-16.277 14.272-30.745 24.339-47.589 28.417-49.687 12.013-77.199-8.556-92.26-35.912-15.059-27.34-17.423-64.318-18.176-82.922l-3.185-133.501z" fill="#fcc62a"/><path d="M3292.37 5385.85l-1535.53 377.92V4749.83l1518.89-365.728 16.636 1001.75z" fill="#221c35"/><path d="M2783.58 5021.96l-123.008-87.021-.444.63-298.981-210.822-87.021 123.012 299.166 210.953-210.557 298.605 123.008 87.022 210.691-298.795.07.048 87.022-123.008-.26-.183.314-.441z" fill="#fcc62a"/></g></svg>